<?xml version="1.0" encoding="utf-8"?>
<!-- Generator: Adobe Illustrator 22.0.1, SVG Export Plug-In . SVG Version: 6.00 Build 0)  -->
<svg version="1.1" id="レイヤー_1" xmlns="http://www.w3.org/2000/svg" xmlns:xlink="http://www.w3.org/1999/xlink" x="0px"
	 y="0px" viewBox="0 0 200 200" style="enable-background:new 0 0 200 200;" xml:space="preserve">
<style type="text/css">
	.st0{fill:#1EBE8C;}
</style>
<title>file-text-o</title>
<path class="st0" d="M178.1,42.4c4.1,4.1,7.6,12.4,7.6,18.3v128.6c0,5.9-4.8,10.7-10.7,10.7H25c-5.9-0.1-10.7-4.9-10.7-10.8V10.7
	C14.3,4.8,19.1,0,25,0h100c5.9,0,14.2,3.5,18.3,7.6L178.1,42.4z M128.5,15.2v41.9h41.9c-0.7-1.9-1.7-3.8-2.5-4.6l-34.9-34.9
	C132.3,16.9,130.5,15.9,128.5,15.2L128.5,15.2z M171.4,185.7V71.4H125c-5.9,0-10.7-4.8-10.7-10.7V14.3H28.6v171.3L171.4,185.7
	L171.4,185.7z M57.1,89.2c0-2,1.5-3.6,3.6-3.6h78.6c2,0,3.6,1.5,3.6,3.6v7.1c0,2-1.5,3.6-3.6,3.6H60.7c-2,0-3.6-1.5-3.6-3.6
	C57.1,96.4,57.1,89.2,57.1,89.2z M139.3,114.2c2,0,3.6,1.5,3.6,3.6v7.1c0,2-1.5,3.6-3.6,3.6H60.7c-2,0-3.6-1.5-3.6-3.6v-7.1
	c0-2,1.5-3.6,3.6-3.6H139.3z M139.3,142.8c2,0,3.6,1.5,3.6,3.6v7.1c0,2-1.5,3.6-3.6,3.6H60.7c-2,0-3.6-1.5-3.6-3.6v-7.1
	c0-2,1.5-3.6,3.6-3.6H139.3z"/>
</svg>
