<?xml version="1.0" encoding="utf-8"?>
<!-- Generator: Adobe Illustrator 22.0.1, SVG Export Plug-In . SVG Version: 6.00 Build 0)  -->
<svg version="1.1" id="レイヤー_1" xmlns="http://www.w3.org/2000/svg" xmlns:xlink="http://www.w3.org/1999/xlink" x="0px"
	 y="0px" viewBox="0 0 300 300" style="enable-background:new 0 0 300 300;" xml:space="preserve">
<style type="text/css">
	.st0{fill:#1EBE8C;}
</style>
<title>slideshare</title>
<path class="st0" d="M146.1,123.9c0,18.6-16.2,33.8-36.2,33.8s-36.2-15.2-36.2-33.8c0-18.8,16.2-33.8,36.2-33.8
	S146.1,105.1,146.1,123.9z M230.2,123.9c0,18.6-16.1,33.8-36.2,33.8c-19.9,0-36.2-15.2-36.2-33.8c0-18.8,16.2-33.8,36.2-33.8
	C214.1,90.1,230.2,105.1,230.2,123.9z M267.9,154V42.4c0-19.3-6.2-26.8-23.9-26.8H57.8C39.2,15.6,34,21.9,34,42.4V155
	c39.7,20.8,73.7,17.1,92.2,16.4c7.9-0.2,12.9,1.3,15.9,4.5c0.5,0.5,1,1,1.7,1.5c3.5,3.3,6.9,6,10.2,8.5c0.7-9.2,5.9-15.1,19.8-14.6
	C192.7,172.3,227.5,175.9,267.9,154L267.9,154z M295.1,153.2c-10.7,13.2-31.1,29.5-62.3,42.2c33,112.3-80.5,130.2-78.7,72.7
	c0,1-0.2-31-0.2-54.7c-2.5-0.5-5-1.2-8-1.8c0,23.9-0.2,57.6-0.2,56.6c1.8,57.6-111.7,39.7-78.7-72.7c-31.1-12.7-51.6-29-62.3-42.2
	c-5.4-8,0.5-16.6,9.4-10.4c1.2,0.8,2.5,1.7,3.7,2.5V29.1C17.9,13.1,30,0,44.9,0h210.4c14.9,0,27,13.1,27,29.1v116.2l3.5-2.5
	C294.6,136.6,300.5,145.1,295.1,153.2L295.1,153.2z"/>
</svg>
