<!-- Generated by IcoMoon.io -->
<svg version="1.1" xmlns="http://www.w3.org/2000/svg" width="300" height="300" viewBox="0 0 300 300">
<title>check</title>
<path d="M279.743 94.755c0 4.185-1.674 8.37-4.688 11.384l-143.973 143.973c-3.013 3.013-7.199 4.688-11.384 4.688s-8.37-1.674-11.384-4.688l-83.37-83.37c-3.013-3.013-4.688-7.199-4.688-11.384s1.674-8.37 4.688-11.384l22.768-22.768c3.013-3.013 7.199-4.688 11.384-4.688s8.37 1.674 11.384 4.688l49.219 49.386 109.821-109.989c3.013-3.013 7.199-4.688 11.384-4.688s8.37 1.674 11.384 4.688l22.768 22.768c3.013 3.013 4.688 7.199 4.688 11.384z"></path>
</svg>
